<svg width="512" height="512" viewBox="0 0 512 512" xmlns="http://www.w3.org/2000/svg">
  <rect width="512" height="512" rx="96" fill="#6366f1"/>
  <path d="M256 120c-8.8 0-16 7.2-16 16v80c0 8.8 7.2 16 16 16s16-7.2 16-16v-80c0-8.8-7.2-16-16-16z" fill="white"/>
  <circle cx="256" cy="280" r="48" fill="white"/>
  <path d="M256 344c-35.3 0-64 28.7-64 64v24c0 8.8 7.2 16 16 16h96c8.8 0 16-7.2 16-16v-24c0-35.3-28.7-64-64-64z" fill="white"/>
  <path d="M384 264c0-17.7-14.3-32-32-32s-32 14.3-32 32c0 11.8 6.4 22.1 16 27.6V320c0 8.8 7.2 16 16 16s16-7.2 16-16v-28.4c9.6-5.5 16-15.8 16-27.6z" fill="white" opacity="0.7"/>
  <path d="M192 264c0-17.7-14.3-32-32-32s-32 14.3-32 32c0 11.8 6.4 22.1 16 27.6V320c0 8.8 7.2 16 16 16s16-7.2 16-16v-28.4c9.6-5.5 16-15.8 16-27.6z" fill="white" opacity="0.7"/>
</svg>
